<?xml version="1.0" standalone="no"?>
<svg xmlns:xlink="http://www.w3.org/1999/xlink" id="wave" style="transform:rotate(0deg); transition: 0.3s" viewBox="0 0 1440 490" version="1.1" xmlns="http://www.w3.org/2000/svg"><defs><linearGradient id="sw-gradient-0" x1="0" x2="0" y1="1" y2="0"><stop stop-color="rgba(243, 106, 62, 1)" offset="0%"/><stop stop-color="rgba(255, 179, 11, 1)" offset="100%"/></linearGradient></defs><path style="transform:translate(0, 0px); opacity:1" fill="url(#sw-gradient-0)" d="M0,196L26.7,171.5C53.3,147,107,98,160,122.5C213.3,147,267,245,320,253.2C373.3,261,427,180,480,155.2C533.3,131,587,163,640,196C693.3,229,747,261,800,236.8C853.3,212,907,131,960,106.2C1013.3,82,1067,114,1120,147C1173.3,180,1227,212,1280,245C1333.3,278,1387,310,1440,326.7C1493.3,343,1547,343,1600,285.8C1653.3,229,1707,114,1760,114.3C1813.3,114,1867,229,1920,269.5C1973.3,310,2027,278,2080,285.8C2133.3,294,2187,343,2240,334.8C2293.3,327,2347,261,2400,253.2C2453.3,245,2507,294,2560,310.3C2613.3,327,2667,310,2720,253.2C2773.3,196,2827,98,2880,122.5C2933.3,147,2987,294,3040,318.5C3093.3,343,3147,245,3200,196C3253.3,147,3307,147,3360,138.8C3413.3,131,3467,114,3520,147C3573.3,180,3627,261,3680,310.3C3733.3,359,3787,376,3813,383.8L3840,392L3840,490L3813.3,490C3786.7,490,3733,490,3680,490C3626.7,490,3573,490,3520,490C3466.7,490,3413,490,3360,490C3306.7,490,3253,490,3200,490C3146.7,490,3093,490,3040,490C2986.7,490,2933,490,2880,490C2826.7,490,2773,490,2720,490C2666.7,490,2613,490,2560,490C2506.7,490,2453,490,2400,490C2346.7,490,2293,490,2240,490C2186.7,490,2133,490,2080,490C2026.7,490,1973,490,1920,490C1866.7,490,1813,490,1760,490C1706.7,490,1653,490,1600,490C1546.7,490,1493,490,1440,490C1386.7,490,1333,490,1280,490C1226.7,490,1173,490,1120,490C1066.7,490,1013,490,960,490C906.7,490,853,490,800,490C746.7,490,693,490,640,490C586.7,490,533,490,480,490C426.7,490,373,490,320,490C266.7,490,213,490,160,490C106.7,490,53,490,27,490L0,490Z"/><defs><linearGradient id="sw-gradient-1" x1="0" x2="0" y1="1" y2="0"><stop stop-color="rgba(159.695, 69.914, 41.079, 1)" offset="0%"/><stop stop-color="rgba(237.106, 177.664, 46.267, 1)" offset="100%"/></linearGradient></defs><path style="transform:translate(0, 50px); opacity:0.9" fill="url(#sw-gradient-1)" d="M0,343L26.7,334.8C53.3,327,107,310,160,294C213.3,278,267,261,320,261.3C373.3,261,427,278,480,277.7C533.3,278,587,261,640,220.5C693.3,180,747,114,800,81.7C853.3,49,907,49,960,114.3C1013.3,180,1067,310,1120,310.3C1173.3,310,1227,180,1280,138.8C1333.3,98,1387,147,1440,212.3C1493.3,278,1547,359,1600,375.7C1653.3,392,1707,343,1760,277.7C1813.3,212,1867,131,1920,147C1973.3,163,2027,278,2080,310.3C2133.3,343,2187,294,2240,253.2C2293.3,212,2347,180,2400,204.2C2453.3,229,2507,310,2560,326.7C2613.3,343,2667,294,2720,269.5C2773.3,245,2827,245,2880,204.2C2933.3,163,2987,82,3040,114.3C3093.3,147,3147,294,3200,302.2C3253.3,310,3307,180,3360,163.3C3413.3,147,3467,245,3520,310.3C3573.3,376,3627,408,3680,375.7C3733.3,343,3787,245,3813,196L3840,147L3840,490L3813.3,490C3786.7,490,3733,490,3680,490C3626.7,490,3573,490,3520,490C3466.7,490,3413,490,3360,490C3306.7,490,3253,490,3200,490C3146.7,490,3093,490,3040,490C2986.7,490,2933,490,2880,490C2826.7,490,2773,490,2720,490C2666.7,490,2613,490,2560,490C2506.7,490,2453,490,2400,490C2346.7,490,2293,490,2240,490C2186.7,490,2133,490,2080,490C2026.7,490,1973,490,1920,490C1866.7,490,1813,490,1760,490C1706.7,490,1653,490,1600,490C1546.7,490,1493,490,1440,490C1386.7,490,1333,490,1280,490C1226.7,490,1173,490,1120,490C1066.7,490,1013,490,960,490C906.7,490,853,490,800,490C746.7,490,693,490,640,490C586.7,490,533,490,480,490C426.7,490,373,490,320,490C266.7,490,213,490,160,490C106.7,490,53,490,27,490L0,490Z"/><defs><linearGradient id="sw-gradient-2" x1="0" x2="0" y1="1" y2="0"><stop stop-color="rgba(243, 106, 62, 1)" offset="0%"/><stop stop-color="rgba(230.276, 177.405, 60.535, 1)" offset="100%"/></linearGradient></defs><path style="transform:translate(0, 100px); opacity:0.8" fill="url(#sw-gradient-2)" d="M0,0L26.7,24.5C53.3,49,107,98,160,130.7C213.3,163,267,180,320,187.8C373.3,196,427,196,480,163.3C533.3,131,587,65,640,89.8C693.3,114,747,229,800,285.8C853.3,343,907,343,960,326.7C1013.3,310,1067,278,1120,245C1173.3,212,1227,180,1280,196C1333.3,212,1387,278,1440,294C1493.3,310,1547,278,1600,269.5C1653.3,261,1707,278,1760,236.8C1813.3,196,1867,98,1920,98C1973.3,98,2027,196,2080,236.8C2133.3,278,2187,261,2240,253.2C2293.3,245,2347,245,2400,236.8C2453.3,229,2507,212,2560,212.3C2613.3,212,2667,229,2720,245C2773.3,261,2827,278,2880,310.3C2933.3,343,2987,392,3040,375.7C3093.3,359,3147,278,3200,253.2C3253.3,229,3307,261,3360,261.3C3413.3,261,3467,229,3520,196C3573.3,163,3627,131,3680,171.5C3733.3,212,3787,327,3813,383.8L3840,441L3840,490L3813.3,490C3786.7,490,3733,490,3680,490C3626.7,490,3573,490,3520,490C3466.7,490,3413,490,3360,490C3306.7,490,3253,490,3200,490C3146.7,490,3093,490,3040,490C2986.7,490,2933,490,2880,490C2826.7,490,2773,490,2720,490C2666.7,490,2613,490,2560,490C2506.7,490,2453,490,2400,490C2346.7,490,2293,490,2240,490C2186.7,490,2133,490,2080,490C2026.7,490,1973,490,1920,490C1866.7,490,1813,490,1760,490C1706.7,490,1653,490,1600,490C1546.7,490,1493,490,1440,490C1386.7,490,1333,490,1280,490C1226.7,490,1173,490,1120,490C1066.7,490,1013,490,960,490C906.7,490,853,490,800,490C746.7,490,693,490,640,490C586.7,490,533,490,480,490C426.7,490,373,490,320,490C266.7,490,213,490,160,490C106.7,490,53,490,27,490L0,490Z"/><defs><linearGradient id="sw-gradient-3" x1="0" x2="0" y1="1" y2="0"><stop stop-color="rgba(191.57, 87.143, 53.604, 1)" offset="0%"/><stop stop-color="rgba(255, 179, 11, 1)" offset="100%"/></linearGradient></defs><path style="transform:translate(0, 150px); opacity:0.7" fill="url(#sw-gradient-3)" d="M0,196L26.7,228.7C53.3,261,107,327,160,367.5C213.3,408,267,425,320,400.2C373.3,376,427,310,480,253.2C533.3,196,587,147,640,179.7C693.3,212,747,327,800,383.8C853.3,441,907,441,960,375.7C1013.3,310,1067,180,1120,138.8C1173.3,98,1227,147,1280,196C1333.3,245,1387,294,1440,326.7C1493.3,359,1547,376,1600,326.7C1653.3,278,1707,163,1760,171.5C1813.3,180,1867,310,1920,318.5C1973.3,327,2027,212,2080,179.7C2133.3,147,2187,196,2240,236.8C2293.3,278,2347,310,2400,318.5C2453.3,327,2507,310,2560,285.8C2613.3,261,2667,229,2720,196C2773.3,163,2827,131,2880,106.2C2933.3,82,2987,65,3040,49C3093.3,33,3147,16,3200,16.3C3253.3,16,3307,33,3360,49C3413.3,65,3467,82,3520,122.5C3573.3,163,3627,229,3680,285.8C3733.3,343,3787,392,3813,416.5L3840,441L3840,490L3813.3,490C3786.7,490,3733,490,3680,490C3626.7,490,3573,490,3520,490C3466.7,490,3413,490,3360,490C3306.7,490,3253,490,3200,490C3146.7,490,3093,490,3040,490C2986.7,490,2933,490,2880,490C2826.7,490,2773,490,2720,490C2666.7,490,2613,490,2560,490C2506.7,490,2453,490,2400,490C2346.7,490,2293,490,2240,490C2186.7,490,2133,490,2080,490C2026.7,490,1973,490,1920,490C1866.7,490,1813,490,1760,490C1706.7,490,1653,490,1600,490C1546.7,490,1493,490,1440,490C1386.7,490,1333,490,1280,490C1226.7,490,1173,490,1120,490C1066.7,490,1013,490,960,490C906.7,490,853,490,800,490C746.7,490,693,490,640,490C586.7,490,533,490,480,490C426.7,490,373,490,320,490C266.7,490,213,490,160,490C106.7,490,53,490,27,490L0,490Z"/></svg>